solid OpenSCAD_Model
  facet normal 0.8598187993393314 -0.5105992874090901 0
    outer loop
      vertex 17.02254582941532 -53.69981037080288 0
      vertex 16.872257739305496 -53.95288656651974 20
      vertex 16.872257739305496 -53.95288656651974 0
    endloop
  endfacet
  facet normal 0.8598187993393314 -0.5105992874090901 0
    outer loop
      vertex 17.02254582941532 -53.69981037080288 0
      vertex 17.02254582941532 -53.69981037080288 20
      vertex 16.872257739305496 -53.95288656651974 20
    endloop
  endfacet
  facet normal 0.97201846366452 -0.23490446205908058 0
    outer loop
      vertex 29.85078237950802 -0.6174522340297699 0
      vertex 17.02254582941532 -53.69981037080288 20
      vertex 17.02254582941532 -53.69981037080288 0
    endloop
  endfacet
  facet normal 0.97201846366452 -0.23490446205908058 0
    outer loop
      vertex 29.85078237950802 -0.6174522340297699 0
      vertex 29.85078237950802 -0.6174522340297699 20
      vertex 17.02254582941532 -53.69981037080288 20
    endloop
  endfacet
  facet normal 0.9984139638739183 -0.05629881652015539 0
    outer loop
      vertex 29.86090537905693 -0.43792902678251266 0
      vertex 29.85078237950802 -0.6174522340297699 20
      vertex 29.85078237950802 -0.6174522340297699 0
    endloop
  endfacet
  facet normal 0.9984139638739183 -0.05629881652015539 0
    outer loop
      vertex 29.86090537905693 -0.43792902678251266 0
      vertex 29.86090537905693 -0.43792902678251266 20
      vertex 29.85078237950802 -0.6174522340297699 20
    endloop
  endfacet
  facet normal 0.9537704378509667 0.30053610745062764 0
    outer loop
      vertex 29.806866466999054 -0.26643310487270355 0
      vertex 29.86090537905693 -0.43792902678251266 20
      vertex 29.86090537905693 -0.43792902678251266 0
    endloop
  endfacet
  facet normal 0.9537704378509667 0.30053610745062764 0
    outer loop
      vertex 29.806866466999054 -0.26643310487270355 0
      vertex 29.806866466999054 -0.26643310487270355 20
      vertex 29.86090537905693 -0.43792902678251266 20
    endloop
  endfacet
  facet normal 0.7857812897849066 0.618504458046964 0
    outer loop
      vertex 29.695654176175594 -0.12514303624629974 0
      vertex 29.806866466999054 -0.26643310487270355 20
      vertex 29.806866466999054 -0.26643310487270355 0
    endloop
  endfacet
  facet normal 0.7857812897849066 0.618504458046964 0
    outer loop
      vertex 29.695654176175594 -0.12514303624629974 0
      vertex 29.695654176175594 -0.12514303624629974 20
      vertex 29.806866466999054 -0.26643310487270355 20
    endloop
  endfacet
  facet normal 0.5161715738361312 0.8564852049881139 0
    outer loop
      vertex 29.54165095090866 -0.03233105689287186 0
      vertex 29.695654176175594 -0.12514303624629974 20
      vertex 29.695654176175594 -0.12514303624629974 0
    endloop
  endfacet
  facet normal 0.5161715738361312 0.8564852049881139 0
    outer loop
      vertex 29.54165095090866 -0.03233105689287186 0
      vertex 29.54165095090866 -0.03233105689287186 20
      vertex 29.695654176175594 -0.12514303624629974 20
    endloop
  endfacet
  facet normal 0.17980839513914282 0.9837016524523511 0
    outer loop
      vertex 29.364773146808147 0 0
      vertex 29.54165095090866 -0.03233105689287186 20
      vertex 29.54165095090866 -0.03233105689287186 0
    endloop
  endfacet
  facet normal 0.17980839513914282 0.9837016524523511 0
    outer loop
      vertex 29.364773146808147 0 0
      vertex 29.364773146808147 0 20
      vertex 29.54165095090866 -0.03233105689287186 20
    endloop
  endfacet
  facet normal 0 1 0
    outer loop
      vertex 24.405906058847904 0 0
      vertex 29.364773146808147 0 20
      vertex 29.364773146808147 0 0
    endloop
  endfacet
  facet normal 0 1 0
    outer loop
      vertex 24.405906058847904 0 0
      vertex 24.405906058847904 0 20
      vertex 29.364773146808147 0 20
    endloop
  endfacet
  facet normal -0.13595801641920768 0.9907145995549649 0
    outer loop
      vertex 24.271210446953773 -0.018484584987163544 0
      vertex 24.405906058847904 0 20
      vertex 24.405906058847904 0 0
    endloop
  endfacet
  facet normal -0.13595801641920768 0.9907145995549649 0
    outer loop
      vertex 24.271210446953773 -0.018484584987163544 0
      vertex 24.271210446953773 -0.018484584987163544 20
      vertex 24.405906058847904 0 20
    endloop
  endfacet
  facet normal -0.3978216058660085 0.9174627893850464 0
    outer loop
      vertex 24.14647401124239 -0.07257162779569626 0
      vertex 24.271210446953773 -0.018484584987163544 20
      vertex 24.271210446953773 -0.018484584987163544 0
    endloop
  endfacet
  facet normal -0.3978216058660085 0.9174627893850464 0
    outer loop
      vertex 24.14647401124239 -0.07257162779569626 0
      vertex 24.14647401124239 -0.07257162779569626 20
      vertex 24.271210446953773 -0.018484584987163544 20
    endloop
  endfacet
  facet normal -0.6302708953395117 0.7763752948722223 0
    outer loop
      vertex 24.040919549763203 -0.15826202183961868 0
      vertex 24.14647401124239 -0.07257162779569626 20
      vertex 24.14647401124239 -0.07257162779569626 0
    endloop
  endfacet
  facet normal -0.6302708953395117 0.7763752948722223 0
    outer loop
      vertex 24.040919549763203 -0.15826202183961868 0
      vertex 24.040919549763203 -0.15826202183961868 20
      vertex 24.14647401124239 -0.07257162779569626 20
    endloop
  endfacet
  facet normal -0.8161189645302214 0.5778839292921369 0
    outer loop
      vertex 23.962351582944393 -0.2692199572920799 0
      vertex 24.040919549763203 -0.15826202183961868 20
      vertex 24.040919549763203 -0.15826202183961868 0
    endloop
  endfacet
  facet normal -0.8161189645302214 0.5778839292921369 0
    outer loop
      vertex 23.962351582944393 -0.2692199572920799 0
      vertex 23.962351582944393 -0.2692199572920799 20
      vertex 24.040919549763203 -0.15826202183961868 20
    endloop
  endfacet
  facet normal -0.9416245798422678 0.33666474516478945 0
    outer loop
      vertex 23.91657930612564 -0.39724138379096985 0
      vertex 23.962351582944393 -0.2692199572920799 20
      vertex 23.962351582944393 -0.2692199572920799 0
    endloop
  endfacet
  facet normal -0.9416245798422678 0.33666474516478945 0
    outer loop
      vertex 23.91657930612564 -0.39724138379096985 0
      vertex 23.91657930612564 -0.39724138379096985 20
      vertex 23.962351582944393 -0.2692199572920799 20
    endloop
  endfacet
  facet normal -0.9786534966667672 0.20551723397785893 0
    outer loop
      vertex 20.256802774965763 -17.82474870234728 0
      vertex 23.91657930612564 -0.39724138379096985 20
      vertex 23.91657930612564 -0.39724138379096985 0
    endloop
  endfacet
  facet normal -0.9786534966667672 0.20551723397785893 0
    outer loop
      vertex 20.256802774965763 -17.82474870234728 0
      vertex 20.256802774965763 -17.82474870234728 20
      vertex 23.91657930612564 -0.39724138379096985 20
    endloop
  endfacet
  facet normal -0.8884231991831939 0.45902529249824453 0
    outer loop
      vertex 20.134408086538315 -18.061638221144676 0
      vertex 20.256802774965763 -17.82474870234728 20
      vertex 20.256802774965763 -17.82474870234728 0
    endloop
  endfacet
  facet normal -0.8884231991831939 0.45902529249824453 0
    outer loop
      vertex 20.134408086538315 -18.061638221144676 0
      vertex 20.134408086538315 -18.061638221144676 20
      vertex 20.256802774965763 -17.82474870234728 20
    endloop
  endfacet
  facet normal -0.5261675425212634 0.8503809247608595 0
    outer loop
      vertex 19.90766217559576 -18.2019357457757 0
      vertex 20.134408086538315 -18.061638221144676 20
      vertex 20.134408086538315 -18.061638221144676 0
    endloop
  endfacet
  facet normal -0.5261675425212634 0.8503809247608595 0
    outer loop
      vertex 19.90766217559576 -18.2019357457757 0
      vertex 19.90766217559576 -18.2019357457757 20
      vertex 20.134408086538315 -18.061638221144676 20
    endloop
  endfacet
  facet normal -0.014275926449411516 0.9998980937695656 0
    outer loop
      vertex 19.641048938035965 -18.20574228465557 0
      vertex 19.90766217559576 -18.2019357457757 20
      vertex 19.90766217559576 -18.2019357457757 0
    endloop
  endfacet
  facet normal -0.014275926449411516 0.9998980937695656 0
    outer loop
      vertex 19.641048938035965 -18.20574228465557 0
      vertex 19.641048938035965 -18.20574228465557 20
      vertex 19.90766217559576 -18.2019357457757 20
    endloop
  endfacet
  facet normal 0.5016756377511149 0.8650558100417637 0
    outer loop
      vertex 19.410390108823776 -18.0719752907753 0
      vertex 19.641048938035965 -18.20574228465557 20
      vertex 19.641048938035965 -18.20574228465557 0
    endloop
  endfacet
  facet normal 0.5016756377511149 0.8650558100417637 0
    outer loop
      vertex 19.410390108823776 -18.0719752907753 0
      vertex 19.410390108823776 -18.0719752907753 20
      vertex 19.641048938035965 -18.20574228465557 20
    endloop
  endfacet
  facet normal 0.8749564116724388 0.4842016911094899 0
    outer loop
      vertex 19.281282372772694 -17.838676556944847 0
      vertex 19.410390108823776 -18.0719752907753 20
      vertex 19.410390108823776 -18.0719752907753 0
    endloop
  endfacet
  facet normal 0.8749564116724388 0.4842016911094899 0
    outer loop
      vertex 19.281282372772694 -17.838676556944847 0
      vertex 19.281282372772694 -17.838676556944847 20
      vertex 19.410390108823776 -18.0719752907753 20
    endloop
  endfacet
  facet normal 0.9723873019432328 0.23337295263067728 0
    outer loop
      vertex 15.471485495567322 -1.9645229130983353 0
      vertex 19.281282372772694 -17.838676556944847 20
      vertex 19.281282372772694 -17.838676556944847 0
    endloop
  endfacet
  facet normal 0.9723873019432328 0.23337295263067728 0
    outer loop
      vertex 15.471485495567322 -1.9645229130983353 0
      vertex 15.471485495567322 -1.9645229130983353 20
      vertex 19.281282372772694 -17.838676556944847 20
    endloop
  endfacet
  facet normal 0.8770153449968845 0.48046236547725124 0
    outer loop
      vertex 15.345352664589882 -1.7342854663729668 0
      vertex 15.471485495567322 -1.9645229130983353 20
      vertex 15.471485495567322 -1.9645229130983353 0
    endloop
  endfacet
  facet normal 0.8770153449968845 0.48046236547725124 0
    outer loop
      vertex 15.345352664589882 -1.7342854663729668 0
      vertex 15.345352664589882 -1.7342854663729668 20
      vertex 15.471485495567322 -1.9645229130983353 20
    endloop
  endfacet
  facet normal 0.5127121301994948 0.8585605811742677 0
    outer loop
      vertex 15.119960032403469 -1.5996863022446632 0
      vertex 15.345352664589882 -1.7342854663729668 20
      vertex 15.345352664589882 -1.7342854663729668 0
    endloop
  endfacet
  facet normal 0.5127121301994948 0.8585605811742677 0
    outer loop
      vertex 15.119960032403469 -1.5996863022446632 0
      vertex 15.119960032403469 -1.5996863022446632 20
      vertex 15.345352664589882 -1.7342854663729668 20
    endloop
  endfacet
  facet normal 0.007066936063192885 0.9999750288955613 0
    outer loop
      vertex 14.857442736625671 -1.5978310629725456 0
      vertex 15.119960032403469 -1.5996863022446632 20
      vertex 15.119960032403469 -1.5996863022446632 0
    endloop
  endfacet
  facet normal 0.007066936063192885 0.9999750288955613 0
    outer loop
      vertex 14.857442736625671 -1.5978310629725456 0
      vertex 14.857442736625671 -1.5978310629725456 20
      vertex 15.119960032403469 -1.5996863022446632 20
    endloop
  endfacet
  facet normal -0.5005264177883131 0.8657212629339764 0
    outer loop
      vertex 14.63017025589943 -1.7292311862111092 0
      vertex 14.857442736625671 -1.5978310629725456 20
      vertex 14.857442736625671 -1.5978310629725456 0
    endloop
  endfacet
  facet normal -0.5005264177883131 0.8657212629339764 0
    outer loop
      vertex 14.63017025589943 -1.7292311862111092 0
      vertex 14.63017025589943 -1.7292311862111092 20
      vertex 14.857442736625671 -1.5978310629725456 20
    endloop
  endfacet
  facet normal -0.8701371109708601 0.4928097078095004 0
    outer loop
      vertex 14.50079595297575 -1.957662932574749 0
      vertex 14.63017025589943 -1.7292311862111092 20
      vertex 14.63017025589943 -1.7292311862111092 0
    endloop
  endfacet
  facet normal -0.8701371109708601 0.4928097078095004 0
    outer loop
      vertex 14.50079595297575 -1.957662932574749 0
      vertex 14.50079595297575 -1.957662932574749 20
      vertex 14.63017025589943 -1.7292311862111092 20
    endloop
  endfacet
  facet normal -0.9689917930873514 0.24709290748493695 0
    outer loop
      vertex 10.44956573843956 -17.844840228557587 0
      vertex 14.50079595297575 -1.957662932574749 20
      vertex 14.50079595297575 -1.957662932574749 0
    endloop
  endfacet
  facet normal -0.9689917930873514 0.24709290748493695 0
    outer loop
      vertex 10.44956573843956 -17.844840228557587 0
      vertex 10.44956573843956 -17.844840228557587 20
      vertex 14.50079595297575 -1.957662932574749 20
    endloop
  endfacet
  facet normal -0.8680118966969217 0.4965433991028503 0
    outer loop
      vertex 10.317154049873352 -18.076310269534588 0
      vertex 10.44956573843956 -17.844840228557587 20
      vertex 10.44956573843956 -17.844840228557587 0
    endloop
  endfacet
  facet normal -0.8680118966969217 0.4965433991028503 0
    outer loop
      vertex 10.317154049873352 -18.076310269534588 0
      vertex 10.317154049873352 -18.076310269534588 20
      vertex 10.44956573843956 -17.844840228557587 20
    endloop
  endfacet
  facet normal -0.4893273090016505 0.872100214806305 0
    outer loop
      vertex 10.084593787789345 -18.206797666847706 0
      vertex 10.317154049873352 -18.076310269534588 20
      vertex 10.317154049873352 -18.076310269534588 0
    endloop
  endfacet
  facet normal -0.4893273090016505 0.872100214806305 0
    outer loop
      vertex 10.084593787789345 -18.206797666847706 0
      vertex 10.084593787789345 -18.206797666847706 20
      vertex 10.317154049873352 -18.076310269534588 20
    endloop
  endfacet
  facet normal 0.02854398730790576 0.9995925373813902 0
    outer loop
      vertex 9.818035542964935 -18.19918593019247 0
      vertex 10.084593787789345 -18.206797666847706 20
      vertex 10.084593787789345 -18.206797666847706 0
    endloop
  endfacet
  facet normal 0.02854398730790576 0.9995925373813902 0
    outer loop
      vertex 9.818035542964935 -18.19918593019247 0
      vertex 9.818035542964935 -18.19918593019247 20
      vertex 10.084593787789345 -18.206797666847706 20
    endloop
  endfacet
  facet normal 0.5382960498573601 0.8427558144017532 0
    outer loop
      vertex 9.593300461769104 -18.055640190839767 0
      vertex 9.818035542964935 -18.19918593019247 20
      vertex 9.818035542964935 -18.19918593019247 0
    endloop
  endfacet
  facet normal 0.5382960498573601 0.8427558144017532 0
    outer loop
      vertex 9.593300461769104 -18.055640190839767 0
      vertex 9.593300461769104 -18.055640190839767 20
      vertex 9.818035542964935 -18.19918593019247 20
    endloop
  endfacet
  facet normal 0.8949325498685393 0.4462014468665409 0
    outer loop
      vertex 9.47431330382824 -17.816991299390793 0
      vertex 9.593300461769104 -18.055640190839767 20
      vertex 9.593300461769104 -18.055640190839767 0
    endloop
  endfacet
  facet normal 0.8949325498685393 0.4462014468665409 0
    outer loop
      vertex 9.47431330382824 -17.816991299390793 0
      vertex 9.47431330382824 -17.816991299390793 20
      vertex 9.593300461769104 -18.055640190839767 20
    endloop
  endfacet
  facet normal 0.9815130840992596 0.19139505150854835 0
    outer loop
      vertex 6.078838981688023 -0.4043024778366089 0
      vertex 9.47431330382824 -17.816991299390793 20
      vertex 9.47431330382824 -17.816991299390793 0
    endloop
  endfacet
  facet normal 0.9815130840992596 0.19139505150854835 0
    outer loop
      vertex 6.078838981688023 -0.4043024778366089 0
      vertex 6.078838981688023 -0.4043024778366089 20
      vertex 9.47431330382824 -17.816991299390793 20
    endloop
  endfacet
  facet normal 0.945911168025906 0.32442574220284426 0
    outer loop
      vertex 6.034267619252205 -0.27434808760881424 0
      vertex 6.078838981688023 -0.4043024778366089 20
      vertex 6.078838981688023 -0.4043024778366089 0
    endloop
  endfacet
  facet normal 0.945911168025906 0.32442574220284426 0
    outer loop
      vertex 6.034267619252205 -0.27434808760881424 0
      vertex 6.034267619252205 -0.27434808760881424 20
      vertex 6.078838981688023 -0.4043024778366089 20
    endloop
  endfacet
  facet normal 0.8219060625376688 0.569623054628081 0
    outer loop
      vertex 5.956009723246098 -0.16143018752336502 0
      vertex 6.034267619252205 -0.27434808760881424 20
      vertex 6.034267619252205 -0.27434808760881424 0
    endloop
  endfacet
  facet normal 0.8219060625376688 0.569623054628081 0
    outer loop
      vertex 5.956009723246098 -0.16143018752336502 0
      vertex 5.956009723246098 -0.16143018752336502 20
      vertex 6.034267619252205 -0.27434808760881424 20
    endloop
  endfacet
  facet normal 0.6358478054392207 0.7718144649578207 0
    outer loop
      vertex 5.849973678588867 -0.07407397776842117 0
      vertex 5.956009723246098 -0.16143018752336502 20
      vertex 5.956009723246098 -0.16143018752336502 0
    endloop
  endfacet
  facet normal 0.6358478054392207 0.7718144649578207 0
    outer loop
      vertex 5.849973678588867 -0.07407397776842117 0
      vertex 5.849973678588867 -0.07407397776842117 20
      vertex 5.956009723246098 -0.16143018752336502 20
    endloop
  endfacet
  facet normal 0.4017837782537205 0.9157345660900681 0
    outer loop
      vertex 5.724165111780167 -0.018874749541282654 0
      vertex 5.849973678588867 -0.07407397776842117 20
      vertex 5.849973678588867 -0.07407397776842117 0
    endloop
  endfacet
  facet normal 0.4017837782537205 0.9157345660900681 0
    outer loop
      vertex 5.724165111780167 -0.018874749541282654 0
      vertex 5.724165111780167 -0.018874749541282654 20
      vertex 5.849973678588867 -0.07407397776842117 20
    endloop
  endfacet
  facet normal 0.1373854046368627 0.9905176679861726 0
    outer loop
      vertex 5.588082440197468 0 0
      vertex 5.724165111780167 -0.018874749541282654 20
      vertex 5.724165111780167 -0.018874749541282654 0
    endloop
  endfacet
  facet normal 0.1373854046368627 0.9905176679861726 0
    outer loop
      vertex 5.588082440197468 0 0
      vertex 5.588082440197468 0 20
      vertex 5.724165111780167 -0.018874749541282654 20
    endloop
  endfacet
  facet normal 0 1 0
    outer loop
      vertex 0.6352268531918526 0 0
      vertex 5.588082440197468 0 20
      vertex 5.588082440197468 0 0
    endloop
  endfacet
  facet normal 0 1 0
    outer loop
      vertex 0.6352268531918526 0 0
      vertex 0.6352268531918526 0 20
      vertex 5.588082440197468 0 20
    endloop
  endfacet
  facet normal -0.17980839513914282 0.9837016524523511 0
    outer loop
      vertex 0.4583490490913391 -0.03233105689287186 0
      vertex 0.6352268531918526 0 20
      vertex 0.6352268531918526 0 0
    endloop
  endfacet
  facet normal -0.17980839513914282 0.9837016524523511 0
    outer loop
      vertex 0.4583490490913391 -0.03233105689287186 0
      vertex 0.4583490490913391 -0.03233105689287186 20
      vertex 0.6352268531918526 0 20
    endloop
  endfacet
  facet normal -0.5161715738361312 0.8564852049881139 0
    outer loop
      vertex 0.30434582382440567 -0.12514303624629974 0
      vertex 0.4583490490913391 -0.03233105689287186 20
      vertex 0.4583490490913391 -0.03233105689287186 0
    endloop
  endfacet
  facet normal -0.5161715738361312 0.8564852049881139 0
    outer loop
      vertex 0.30434582382440567 -0.12514303624629974 0
      vertex 0.30434582382440567 -0.12514303624629974 20
      vertex 0.4583490490913391 -0.03233105689287186 20
    endloop
  endfacet
  facet normal -0.7857812897849066 0.618504458046964 0
    outer loop
      vertex 0.19313353300094604 -0.26643310487270355 0
      vertex 0.30434582382440567 -0.12514303624629974 20
      vertex 0.30434582382440567 -0.12514303624629974 0
    endloop
  endfacet
  facet normal -0.7857812897849066 0.618504458046964 0
    outer loop
      vertex 0.19313353300094604 -0.26643310487270355 0
      vertex 0.19313353300094604 -0.26643310487270355 20
      vertex 0.30434582382440567 -0.12514303624629974 20
    endloop
  endfacet
  facet normal -0.9537704378509667 0.30053610745062764 0
    outer loop
      vertex 0.13909462094306946 -0.43792902678251266 0
      vertex 0.19313353300094604 -0.26643310487270355 20
      vertex 0.19313353300094604 -0.26643310487270355 0
    endloop
  endfacet
  facet normal -0.9537704378509667 0.30053610745062764 0
    outer loop
      vertex 0.13909462094306946 -0.43792902678251266 0
      vertex 0.13909462094306946 -0.43792902678251266 20
      vertex 0.19313353300094604 -0.26643310487270355 20
    endloop
  endfacet
  facet normal -0.9984139638739183 -0.05629881652015539 0
    outer loop
      vertex 0.1492176204919815 -0.6174522340297699 0
      vertex 0.13909462094306946 -0.43792902678251266 20
      vertex 0.13909462094306946 -0.43792902678251266 0
    endloop
  endfacet
  facet normal -0.9984139638739183 -0.05629881652015539 0
    outer loop
      vertex 0.1492176204919815 -0.6174522340297699 0
      vertex 0.1492176204919815 -0.6174522340297699 20
      vertex 0.13909462094306946 -0.43792902678251266 20
    endloop
  endfacet
  facet normal -0.97201846366452 -0.23490446205908058 0
    outer loop
      vertex 12.977454170584679 -53.69981037080288 0
      vertex 0.1492176204919815 -0.6174522340297699 20
      vertex 0.1492176204919815 -0.6174522340297699 0
    endloop
  endfacet
  facet normal -0.97201846366452 -0.23490446205908058 0
    outer loop
      vertex 12.977454170584679 -53.69981037080288 0
      vertex 12.977454170584679 -53.69981037080288 20
      vertex 0.1492176204919815 -0.6174522340297699 20
    endloop
  endfacet
  facet normal -0.8598187993393314 -0.5105992874090901 0
    outer loop
      vertex 13.127742260694504 -53.95288656651974 0
      vertex 12.977454170584679 -53.69981037080288 20
      vertex 12.977454170584679 -53.69981037080288 0
    endloop
  endfacet
  facet normal -0.8598187993393314 -0.5105992874090901 0
    outer loop
      vertex 13.127742260694504 -53.95288656651974 0
      vertex 13.127742260694504 -53.95288656651974 20
      vertex 12.977454170584679 -53.69981037080288 20
    endloop
  endfacet
  facet normal -0.42357838683221216 -0.9058594538937157 0
    outer loop
      vertex 13.394369907677174 -54.07756121456623 0
      vertex 13.127742260694504 -53.95288656651974 20
      vertex 13.127742260694504 -53.95288656651974 0
    endloop
  endfacet
  facet normal -0.42357838683221216 -0.9058594538937157 0
    outer loop
      vertex 13.394369907677174 -54.07756121456623 0
      vertex 13.394369907677174 -54.07756121456623 20
      vertex 13.127742260694504 -53.95288656651974 20
    endloop
  endfacet
  facet normal 0.1594472959101354 -0.9872064423548631 0
    outer loop
      vertex 13.684940956532955 -54.03063002973795 0
      vertex 13.394369907677174 -54.07756121456623 20
      vertex 13.394369907677174 -54.07756121456623 0
    endloop
  endfacet
  facet normal 0.1594472959101354 -0.9872064423548631 0
    outer loop
      vertex 13.684940956532955 -54.03063002973795 0
      vertex 13.684940956532955 -54.03063002973795 20
      vertex 13.394369907677174 -54.07756121456623 20
    endloop
  endfacet
  facet normal 0.687218694396558 -0.7264505943778216 0
    outer loop
      vertex 13.898762002587318 -53.82835637032986 0
      vertex 13.684940956532955 -54.03063002973795 20
      vertex 13.684940956532955 -54.03063002973795 0
    endloop
  endfacet
  facet normal 0.687218694396558 -0.7264505943778216 0
    outer loop
      vertex 13.898762002587318 -53.82835637032986 0
      vertex 13.898762002587318 -53.82835637032986 20
      vertex 13.684940956532955 -54.03063002973795 20
    endloop
  endfacet
  facet normal 0.9768439039340351 -0.2139532363553156 0
    outer loop
      vertex 13.961736284196377 -53.54083539545536 0
      vertex 13.898762002587318 -53.82835637032986 20
      vertex 13.898762002587318 -53.82835637032986 0
    endloop
  endfacet
  facet normal 0.9768439039340351 -0.2139532363553156 0
    outer loop
      vertex 13.961736284196377 -53.54083539545536 0
      vertex 13.961736284196377 -53.54083539545536 20
      vertex 13.898762002587318 -53.82835637032986 20
    endloop
  endfacet
  facet normal 0.996545758249243 0.08304547980137889 0
    outer loop
      vertex 12.005862832069397 -30.07035395503044 0
      vertex 13.961736284196377 -53.54083539545536 20
      vertex 13.961736284196377 -53.54083539545536 0
    endloop
  endfacet
  facet normal 0.996545758249243 0.08304547980137889 0
    outer loop
      vertex 12.005862832069397 -30.07035395503044 0
      vertex 12.005862832069397 -30.07035395503044 20
      vertex 13.961736284196377 -53.54083539545536 20
    endloop
  endfacet
  facet normal 0.9984830662496078 0.05505966230173822 0
    outer loop
      vertex 12.004318408668041 -30.042346507310867 0
      vertex 12.005862832069397 -30.07035395503044 20
      vertex 12.005862832069397 -30.07035395503044 0
    endloop
  endfacet
  facet normal 0.9984830662496078 0.05505966230173822 0
    outer loop
      vertex 12.004318408668041 -30.042346507310867 0
      vertex 12.004318408668041 -30.042346507310867 20
      vertex 12.005862832069397 -30.07035395503044 20
    endloop
  endfacet
  facet normal 0.9999994800989602 -0.0010197067270132666 0
    outer loop
      vertex 12.004347011446953 -30.014296516776085 0
      vertex 12.004318408668041 -30.042346507310867 20
      vertex 12.004318408668041 -30.042346507310867 0
    endloop
  endfacet
  facet normal 0.9999994800989602 -0.0010197067270132666 0
    outer loop
      vertex 12.004347011446953 -30.014296516776085 0
      vertex 12.004347011446953 -30.014296516776085 20
      vertex 12.004318408668041 -30.042346507310867 20
    endloop
  endfacet
  facet normal 0.998368683651961 -0.05709616014278764 0
    outer loop
      vertex 12.005948558449745 -29.986292280256748 0
      vertex 12.004347011446953 -30.014296516776085 20
      vertex 12.004347011446953 -30.014296516776085 0
    endloop
  endfacet
  facet normal 0.998368683651961 -0.05709616014278764 0
    outer loop
      vertex 12.005948558449745 -29.986292280256748 0
      vertex 12.005948558449745 -29.986292280256748 20
      vertex 12.004347011446953 -30.014296516776085 20
    endloop
  endfacet
  facet normal 0.9935958409363626 -0.11299249919336529 0
    outer loop
      vertex 12.009117998182774 -29.958421915769577 0
      vertex 12.005948558449745 -29.986292280256748 20
      vertex 12.005948558449745 -29.986292280256748 0
    endloop
  endfacet
  facet normal 0.9935958409363626 -0.11299249919336529 0
    outer loop
      vertex 12.009117998182774 -29.958421915769577 0
      vertex 12.009117998182774 -29.958421915769577 20
      vertex 12.005948558449745 -29.986292280256748 20
    endloop
  endfacet
  facet normal 0.9856958873151284 -0.16853372876086803 0
    outer loop
      vertex 12.01384536921978 -29.93077314645052 0
      vertex 12.009117998182774 -29.958421915769577 20
      vertex 12.009117998182774 -29.958421915769577 0
    endloop
  endfacet
  facet normal 0.9856958873151284 -0.16853372876086803 0
    outer loop
      vertex 12.01384536921978 -29.93077314645052 0
      vertex 12.01384536921978 -29.93077314645052 20
      vertex 12.009117998182774 -29.958421915769577 20
    endloop
  endfacet
  facet normal 0.9805806756458862 -0.19611613536335332 0
    outer loop
      vertex 14.509709663689137 -17.451451689004898 0
      vertex 12.01384536921978 -29.93077314645052 20
      vertex 12.01384536921978 -29.93077314645052 0
    endloop
  endfacet
  facet normal 0.9805806756458862 -0.19611613536335332 0
    outer loop
      vertex 14.509709663689137 -17.451451689004898 0
      vertex 14.509709663689137 -17.451451689004898 20
      vertex 12.01384536921978 -29.93077314645052 20
    endloop
  endfacet
  facet normal 0.8906263090092231 -0.45473594282903135 0
    outer loop
      vertex 14.633051827549934 -17.209879018366337 0
      vertex 14.509709663689137 -17.451451689004898 20
      vertex 14.509709663689137 -17.451451689004898 0
    endloop
  endfacet
  facet normal 0.8906263090092231 -0.45473594282903135 0
    outer loop
      vertex 14.633051827549934 -17.209879018366337 0
      vertex 14.633051827549934 -17.209879018366337 20
      vertex 14.509709663689137 -17.451451689004898 20
    endloop
  endfacet
  facet normal 0.522141777701181 -0.8528587010631073 0
    outer loop
      vertex 14.864380449056625 -17.068253755569458 0
      vertex 14.633051827549934 -17.209879018366337 20
      vertex 14.633051827549934 -17.209879018366337 0
    endloop
  endfacet
  facet normal 0.522141777701181 -0.8528587010631073 0
    outer loop
      vertex 14.864380449056625 -17.068253755569458 0
      vertex 14.864380449056625 -17.068253755569458 20
      vertex 14.633051827549934 -17.209879018366337 20
    endloop
  endfacet
  facet normal 0 -1 0
    outer loop
      vertex 15.135619550943375 -17.068253755569458 0
      vertex 14.864380449056625 -17.068253755569458 20
      vertex 14.864380449056625 -17.068253755569458 0
    endloop
  endfacet
  facet normal 0 -1 0
    outer loop
      vertex 15.135619550943375 -17.068253755569458 0
      vertex 15.135619550943375 -17.068253755569458 20
      vertex 14.864380449056625 -17.068253755569458 20
    endloop
  endfacet
  facet normal -0.522141777701181 -0.8528587010631073 0
    outer loop
      vertex 15.366948172450066 -17.209879018366337 0
      vertex 15.135619550943375 -17.068253755569458 20
      vertex 15.135619550943375 -17.068253755569458 0
    endloop
  endfacet
  facet normal -0.522141777701181 -0.8528587010631073 0
    outer loop
      vertex 15.366948172450066 -17.209879018366337 0
      vertex 15.366948172450066 -17.209879018366337 20
      vertex 15.135619550943375 -17.068253755569458 20
    endloop
  endfacet
  facet normal -0.8906263090092231 -0.45473594282903135 0
    outer loop
      vertex 15.490290336310863 -17.451451689004898 0
      vertex 15.366948172450066 -17.209879018366337 20
      vertex 15.366948172450066 -17.209879018366337 0
    endloop
  endfacet
  facet normal -0.8906263090092231 -0.45473594282903135 0
    outer loop
      vertex 15.490290336310863 -17.451451689004898 0
      vertex 15.490290336310863 -17.451451689004898 20
      vertex 15.366948172450066 -17.209879018366337 20
    endloop
  endfacet
  facet normal -0.9805806756458862 -0.19611613536335332 0
    outer loop
      vertex 17.98615463078022 -29.93077314645052 0
      vertex 15.490290336310863 -17.451451689004898 20
      vertex 15.490290336310863 -17.451451689004898 0
    endloop
  endfacet
  facet normal -0.9805806756458862 -0.19611613536335332 0
    outer loop
      vertex 17.98615463078022 -29.93077314645052 0
      vertex 17.98615463078022 -29.93077314645052 20
      vertex 15.490290336310863 -17.451451689004898 20
    endloop
  endfacet
  facet normal -0.9856958873151284 -0.16853372876086803 0
    outer loop
      vertex 17.990882001817226 -29.958421915769577 0
      vertex 17.98615463078022 -29.93077314645052 20
      vertex 17.98615463078022 -29.93077314645052 0
    endloop
  endfacet
  facet normal -0.9856958873151284 -0.16853372876086803 0
    outer loop
      vertex 17.990882001817226 -29.958421915769577 0
      vertex 17.990882001817226 -29.958421915769577 20
      vertex 17.98615463078022 -29.93077314645052 20
    endloop
  endfacet
  facet normal -0.9935958409363626 -0.11299249919336529 0
    outer loop
      vertex 17.994051441550255 -29.986292280256748 0
      vertex 17.990882001817226 -29.958421915769577 20
      vertex 17.990882001817226 -29.958421915769577 0
    endloop
  endfacet
  facet normal -0.9935958409363626 -0.11299249919336529 0
    outer loop
      vertex 17.994051441550255 -29.986292280256748 0
      vertex 17.994051441550255 -29.986292280256748 20
      vertex 17.990882001817226 -29.958421915769577 20
    endloop
  endfacet
  facet normal -0.998368683651961 -0.05709616014278764 0
    outer loop
      vertex 17.995652988553047 -30.014296516776085 0
      vertex 17.994051441550255 -29.986292280256748 20
      vertex 17.994051441550255 -29.986292280256748 0
    endloop
  endfacet
  facet normal -0.998368683651961 -0.05709616014278764 0
    outer loop
      vertex 17.995652988553047 -30.014296516776085 0
      vertex 17.995652988553047 -30.014296516776085 20
      vertex 17.994051441550255 -29.986292280256748 20
    endloop
  endfacet
  facet normal -0.9999994800989602 -0.0010197067270132666 0
    outer loop
      vertex 17.99568159133196 -30.042346507310867 0
      vertex 17.995652988553047 -30.014296516776085 20
      vertex 17.995652988553047 -30.014296516776085 0
    endloop
  endfacet
  facet normal -0.9999994800989602 -0.0010197067270132666 0
    outer loop
      vertex 17.99568159133196 -30.042346507310867 0
      vertex 17.99568159133196 -30.042346507310867 20
      vertex 17.995652988553047 -30.014296516776085 20
    endloop
  endfacet
  facet normal -0.9984830662496078 0.05505966230173822 0
    outer loop
      vertex 17.994137167930603 -30.07035395503044 0
      vertex 17.99568159133196 -30.042346507310867 20
      vertex 17.99568159133196 -30.042346507310867 0
    endloop
  endfacet
  facet normal -0.9984830662496078 0.05505966230173822 0
    outer loop
      vertex 17.994137167930603 -30.07035395503044 0
      vertex 17.994137167930603 -30.07035395503044 20
      vertex 17.99568159133196 -30.042346507310867 20
    endloop
  endfacet
  facet normal -0.996545758249243 0.08304547980137889 0
    outer loop
      vertex 16.038263715803623 -53.54083539545536 0
      vertex 17.994137167930603 -30.07035395503044 20
      vertex 17.994137167930603 -30.07035395503044 0
    endloop
  endfacet
  facet normal -0.996545758249243 0.08304547980137889 0
    outer loop
      vertex 16.038263715803623 -53.54083539545536 0
      vertex 16.038263715803623 -53.54083539545536 20
      vertex 17.994137167930603 -30.07035395503044 20
    endloop
  endfacet
  facet normal -0.9768439039340351 -0.2139532363553156 0
    outer loop
      vertex 16.10123799741268 -53.82835637032986 0
      vertex 16.038263715803623 -53.54083539545536 20
      vertex 16.038263715803623 -53.54083539545536 0
    endloop
  endfacet
  facet normal -0.9768439039340351 -0.2139532363553156 0
    outer loop
      vertex 16.10123799741268 -53.82835637032986 0
      vertex 16.10123799741268 -53.82835637032986 20
      vertex 16.038263715803623 -53.54083539545536 20
    endloop
  endfacet
  facet normal -0.687218694396558 -0.7264505943778216 0
    outer loop
      vertex 16.315059043467045 -54.03063002973795 0
      vertex 16.10123799741268 -53.82835637032986 20
      vertex 16.10123799741268 -53.82835637032986 0
    endloop
  endfacet
  facet normal -0.687218694396558 -0.7264505943778216 0
    outer loop
      vertex 16.315059043467045 -54.03063002973795 0
      vertex 16.315059043467045 -54.03063002973795 20
      vertex 16.10123799741268 -53.82835637032986 20
    endloop
  endfacet
  facet normal -0.1594472959101354 -0.9872064423548631 0
    outer loop
      vertex 16.605630092322826 -54.07756121456623 0
      vertex 16.315059043467045 -54.03063002973795 20
      vertex 16.315059043467045 -54.03063002973795 0
    endloop
  endfacet
  facet normal -0.1594472959101354 -0.9872064423548631 0
    outer loop
      vertex 16.605630092322826 -54.07756121456623 0
      vertex 16.605630092322826 -54.07756121456623 20
      vertex 16.315059043467045 -54.03063002973795 20
    endloop
  endfacet
  facet normal 0.42357838683221216 -0.9058594538937157 0
    outer loop
      vertex 16.872257739305496 -53.95288656651974 0
      vertex 16.605630092322826 -54.07756121456623 20
      vertex 16.605630092322826 -54.07756121456623 0
    endloop
  endfacet
  facet normal 0.42357838683221216 -0.9058594538937157 0
    outer loop
      vertex 16.872257739305496 -53.95288656651974 0
      vertex 16.872257739305496 -53.95288656651974 20
      vertex 16.605630092322826 -54.07756121456623 20
    endloop
  endfacet
  facet normal 0 0 -1
    outer loop
      vertex 13.961736284196377 -53.54083539545536 0
      vertex 13.898762002587318 -53.82835637032986 0
      vertex 13.684940956532955 -54.03063002973795 0
    endloop
  endfacet
  facet normal 0 0 -1
    outer loop
      vertex 13.961736284196377 -53.54083539545536 0
      vertex 13.684940956532955 -54.03063002973795 0
      vertex 13.394369907677174 -54.07756121456623 0
    endloop
  endfacet
  facet normal 0 0 -1
    outer loop
      vertex 13.961736284196377 -53.54083539545536 0
      vertex 13.394369907677174 -54.07756121456623 0
      vertex 13.127742260694504 -53.95288656651974 0
    endloop
  endfacet
  facet normal 0 0 -1
    outer loop
      vertex 13.961736284196377 -53.54083539545536 0
      vertex 13.127742260694504 -53.95288656651974 0
      vertex 12.977454170584679 -53.69981037080288 0
    endloop
  endfacet
  facet normal 0 0 -1
    outer loop
      vertex 12.005862832069397 -30.07035395503044 0
      vertex 13.961736284196377 -53.54083539545536 0
      vertex 12.977454170584679 -53.69981037080288 0
    endloop
  endfacet
  facet normal 0 0 -1
    outer loop
      vertex 16.315059043467045 -54.03063002973795 0
      vertex 16.10123799741268 -53.82835637032986 0
      vertex 16.038263715803623 -53.54083539545536 0
    endloop
  endfacet
  facet normal 0 0 -1
    outer loop
      vertex 16.605630092322826 -54.07756121456623 0
      vertex 16.315059043467045 -54.03063002973795 0
      vertex 16.038263715803623 -53.54083539545536 0
    endloop
  endfacet
  facet normal 0 0 -1
    outer loop
      vertex 16.872257739305496 -53.95288656651974 0
      vertex 16.605630092322826 -54.07756121456623 0
      vertex 16.038263715803623 -53.54083539545536 0
    endloop
  endfacet
  facet normal 0 0 -1
    outer loop
      vertex 17.02254582941532 -53.69981037080288 0
      vertex 16.872257739305496 -53.95288656651974 0
      vertex 16.038263715803623 -53.54083539545536 0
    endloop
  endfacet
  facet normal 0 0 -1
    outer loop
      vertex 17.02254582941532 -53.69981037080288 0
      vertex 16.038263715803623 -53.54083539545536 0
      vertex 17.994137167930603 -30.07035395503044 0
    endloop
  endfacet
  facet normal 0 0 -1
    outer loop
      vertex 14.857442736625671 -1.5978310629725456 0
      vertex 15.119960032403469 -1.5996863022446632 0
      vertex 15.345352664589882 -1.7342854663729668 0
    endloop
  endfacet
  facet normal 0 0 -1
    outer loop
      vertex 14.857442736625671 -1.5978310629725456 0
      vertex 15.345352664589882 -1.7342854663729668 0
      vertex 15.471485495567322 -1.9645229130983353 0
    endloop
  endfacet
  facet normal 0 0 -1
    outer loop
      vertex 14.63017025589943 -1.7292311862111092 0
      vertex 14.857442736625671 -1.5978310629725456 0
      vertex 15.471485495567322 -1.9645229130983353 0
    endloop
  endfacet
  facet normal 0 0 -1
    outer loop
      vertex 14.50079595297575 -1.957662932574749 0
      vertex 14.63017025589943 -1.7292311862111092 0
      vertex 15.471485495567322 -1.9645229130983353 0
    endloop
  endfacet
  facet normal 0 0 -1
    outer loop
      vertex 10.44956573843956 -17.844840228557587 0
      vertex 14.50079595297575 -1.957662932574749 0
      vertex 15.471485495567322 -1.9645229130983353 0
    endloop
  endfacet
  facet normal 0 0 -1
    outer loop
      vertex 29.85078237950802 -0.6174522340297699 0
      vertex 17.02254582941532 -53.69981037080288 0
      vertex 17.994137167930603 -30.07035395503044 0
    endloop
  endfacet
  facet normal 0 0 -1
    outer loop
      vertex 29.85078237950802 -0.6174522340297699 0
      vertex 17.994137167930603 -30.07035395503044 0
      vertex 17.99568159133196 -30.042346507310867 0
    endloop
  endfacet
  facet normal 0 0 -1
    outer loop
      vertex 29.85078237950802 -0.6174522340297699 0
      vertex 17.99568159133196 -30.042346507310867 0
      vertex 17.995652988553047 -30.014296516776085 0
    endloop
  endfacet
  facet normal 0 0 -1
    outer loop
      vertex 29.85078237950802 -0.6174522340297699 0
      vertex 17.995652988553047 -30.014296516776085 0
      vertex 17.994051441550255 -29.986292280256748 0
    endloop
  endfacet
  facet normal 0 0 -1
    outer loop
      vertex 29.85078237950802 -0.6174522340297699 0
      vertex 17.994051441550255 -29.986292280256748 0
      vertex 17.990882001817226 -29.958421915769577 0
    endloop
  endfacet
  facet normal 0 0 -1
    outer loop
      vertex 29.85078237950802 -0.6174522340297699 0
      vertex 17.990882001817226 -29.958421915769577 0
      vertex 17.98615463078022 -29.93077314645052 0
    endloop
  endfacet
  facet normal 0 0 -1
    outer loop
      vertex 12.005862832069397 -30.07035395503044 0
      vertex 12.977454170584679 -53.69981037080288 0
      vertex 0.1492176204919815 -0.6174522340297699 0
    endloop
  endfacet
  facet normal 0 0 -1
    outer loop
      vertex 12.004318408668041 -30.042346507310867 0
      vertex 12.005862832069397 -30.07035395503044 0
      vertex 0.1492176204919815 -0.6174522340297699 0
    endloop
  endfacet
  facet normal 0 0 -1
    outer loop
      vertex 12.004347011446953 -30.014296516776085 0
      vertex 12.004318408668041 -30.042346507310867 0
      vertex 0.1492176204919815 -0.6174522340297699 0
    endloop
  endfacet
  facet normal 0 0 -1
    outer loop
      vertex 12.005948558449745 -29.986292280256748 0
      vertex 12.004347011446953 -30.014296516776085 0
      vertex 0.1492176204919815 -0.6174522340297699 0
    endloop
  endfacet
  facet normal 0 0 -1
    outer loop
      vertex 12.009117998182774 -29.958421915769577 0
      vertex 12.005948558449745 -29.986292280256748 0
      vertex 0.1492176204919815 -0.6174522340297699 0
    endloop
  endfacet
  facet normal 0 0 -1
    outer loop
      vertex 12.01384536921978 -29.93077314645052 0
      vertex 12.009117998182774 -29.958421915769577 0
      vertex 0.1492176204919815 -0.6174522340297699 0
    endloop
  endfacet
  facet normal 0 0 -1
    outer loop
      vertex 29.54165095090866 -0.03233105689287186 0
      vertex 29.695654176175594 -0.12514303624629974 0
      vertex 29.806866466999054 -0.26643310487270355 0
    endloop
  endfacet
  facet normal 0 0 -1
    outer loop
      vertex 29.54165095090866 -0.03233105689287186 0
      vertex 29.806866466999054 -0.26643310487270355 0
      vertex 29.86090537905693 -0.43792902678251266 0
    endloop
  endfacet
  facet normal 0 0 -1
    outer loop
      vertex 29.364773146808147 0 0
      vertex 29.54165095090866 -0.03233105689287186 0
      vertex 29.86090537905693 -0.43792902678251266 0
    endloop
  endfacet
  facet normal 0 0 -1
    outer loop
      vertex 29.364773146808147 0 0
      vertex 29.86090537905693 -0.43792902678251266 0
      vertex 29.85078237950802 -0.6174522340297699 0
    endloop
  endfacet
  facet normal 0 0 -1
    outer loop
      vertex 24.405906058847904 0 0
      vertex 29.364773146808147 0 0
      vertex 29.85078237950802 -0.6174522340297699 0
    endloop
  endfacet
  facet normal 0 0 -1
    outer loop
      vertex 0.19313353300094604 -0.26643310487270355 0
      vertex 0.30434582382440567 -0.12514303624629974 0
      vertex 0.4583490490913391 -0.03233105689287186 0
    endloop
  endfacet
  facet normal 0 0 -1
    outer loop
      vertex 0.13909462094306946 -0.43792902678251266 0
      vertex 0.19313353300094604 -0.26643310487270355 0
      vertex 0.4583490490913391 -0.03233105689287186 0
    endloop
  endfacet
  facet normal 0 0 -1
    outer loop
      vertex 0.13909462094306946 -0.43792902678251266 0
      vertex 0.4583490490913391 -0.03233105689287186 0
      vertex 0.6352268531918526 0 0
    endloop
  endfacet
  facet normal 0 0 -1
    outer loop
      vertex 0.1492176204919815 -0.6174522340297699 0
      vertex 0.13909462094306946 -0.43792902678251266 0
      vertex 0.6352268531918526 0 0
    endloop
  endfacet
  facet normal 0 0 -1
    outer loop
      vertex 0.1492176204919815 -0.6174522340297699 0
      vertex 0.6352268531918526 0 0
      vertex 5.588082440197468 0 0
    endloop
  endfacet
  facet normal 0 0 -1
    outer loop
      vertex 24.405906058847904 0 0
      vertex 29.85078237950802 -0.6174522340297699 0
      vertex 17.98615463078022 -29.93077314645052 0
    endloop
  endfacet
  facet normal 0 0 -1
    outer loop
      vertex 24.271210446953773 -0.018484584987163544 0
      vertex 24.405906058847904 0 0
      vertex 17.98615463078022 -29.93077314645052 0
    endloop
  endfacet
  facet normal 0 0 -1
    outer loop
      vertex 5.849973678588867 -0.07407397776842117 0
      vertex 5.956009723246098 -0.16143018752336502 0
      vertex 6.034267619252205 -0.27434808760881424 0
    endloop
  endfacet
  facet normal 0 0 -1
    outer loop
      vertex 5.849973678588867 -0.07407397776842117 0
      vertex 6.034267619252205 -0.27434808760881424 0
      vertex 6.078838981688023 -0.4043024778366089 0
    endloop
  endfacet
  facet normal 0 0 -1
    outer loop
      vertex 5.724165111780167 -0.018874749541282654 0
      vertex 5.849973678588867 -0.07407397776842117 0
      vertex 6.078838981688023 -0.4043024778366089 0
    endloop
  endfacet
  facet normal 0 0 -1
    outer loop
      vertex 5.588082440197468 0 0
      vertex 5.724165111780167 -0.018874749541282654 0
      vertex 6.078838981688023 -0.4043024778366089 0
    endloop
  endfacet
  facet normal 0 0 -1
    outer loop
      vertex 0.1492176204919815 -0.6174522340297699 0
      vertex 5.588082440197468 0 0
      vertex 6.078838981688023 -0.4043024778366089 0
    endloop
  endfacet
  facet normal 0 0 -1
    outer loop
      vertex 0.1492176204919815 -0.6174522340297699 0
      vertex 6.078838981688023 -0.4043024778366089 0
      vertex 9.47431330382824 -17.816991299390793 0
    endloop
  endfacet
  facet normal 0 0 -1
    outer loop
      vertex 12.01384536921978 -29.93077314645052 0
      vertex 0.1492176204919815 -0.6174522340297699 0
      vertex 9.47431330382824 -17.816991299390793 0
    endloop
  endfacet
  facet normal 0 0 -1
    outer loop
      vertex 12.01384536921978 -29.93077314645052 0
      vertex 9.47431330382824 -17.816991299390793 0
      vertex 9.593300461769104 -18.055640190839767 0
    endloop
  endfacet
  facet normal 0 0 -1
    outer loop
      vertex 12.01384536921978 -29.93077314645052 0
      vertex 9.593300461769104 -18.055640190839767 0
      vertex 9.818035542964935 -18.19918593019247 0
    endloop
  endfacet
  facet normal 0 0 -1
    outer loop
      vertex 12.01384536921978 -29.93077314645052 0
      vertex 9.818035542964935 -18.19918593019247 0
      vertex 10.084593787789345 -18.206797666847706 0
    endloop
  endfacet
  facet normal 0 0 -1
    outer loop
      vertex 14.509709663689137 -17.451451689004898 0
      vertex 12.01384536921978 -29.93077314645052 0
      vertex 10.084593787789345 -18.206797666847706 0
    endloop
  endfacet
  facet normal 0 0 -1
    outer loop
      vertex 14.509709663689137 -17.451451689004898 0
      vertex 10.084593787789345 -18.206797666847706 0
      vertex 10.317154049873352 -18.076310269534588 0
    endloop
  endfacet
  facet normal 0 0 -1
    outer loop
      vertex 14.509709663689137 -17.451451689004898 0
      vertex 10.317154049873352 -18.076310269534588 0
      vertex 10.44956573843956 -17.844840228557587 0
    endloop
  endfacet
  facet normal 0 0 -1
    outer loop
      vertex 14.509709663689137 -17.451451689004898 0
      vertex 10.44956573843956 -17.844840228557587 0
      vertex 15.471485495567322 -1.9645229130983353 0
    endloop
  endfacet
  facet normal 0 0 -1
    outer loop
      vertex 14.633051827549934 -17.209879018366337 0
      vertex 14.509709663689137 -17.451451689004898 0
      vertex 15.471485495567322 -1.9645229130983353 0
    endloop
  endfacet
  facet normal 0 0 -1
    outer loop
      vertex 14.864380449056625 -17.068253755569458 0
      vertex 14.633051827549934 -17.209879018366337 0
      vertex 15.471485495567322 -1.9645229130983353 0
    endloop
  endfacet
  facet normal 0 0 -1
    outer loop
      vertex 15.135619550943375 -17.068253755569458 0
      vertex 14.864380449056625 -17.068253755569458 0
      vertex 15.471485495567322 -1.9645229130983353 0
    endloop
  endfacet
  facet normal 0 0 -1
    outer loop
      vertex 15.135619550943375 -17.068253755569458 0
      vertex 15.471485495567322 -1.9645229130983353 0
      vertex 19.281282372772694 -17.838676556944847 0
    endloop
  endfacet
  facet normal 0 0 -1
    outer loop
      vertex 15.366948172450066 -17.209879018366337 0
      vertex 15.135619550943375 -17.068253755569458 0
      vertex 19.281282372772694 -17.838676556944847 0
    endloop
  endfacet
  facet normal 0 0 -1
    outer loop
      vertex 15.490290336310863 -17.451451689004898 0
      vertex 15.366948172450066 -17.209879018366337 0
      vertex 19.281282372772694 -17.838676556944847 0
    endloop
  endfacet
  facet normal 0 0 -1
    outer loop
      vertex 17.98615463078022 -29.93077314645052 0
      vertex 15.490290336310863 -17.451451689004898 0
      vertex 19.281282372772694 -17.838676556944847 0
    endloop
  endfacet
  facet normal 0 0 -1
    outer loop
      vertex 17.98615463078022 -29.93077314645052 0
      vertex 19.281282372772694 -17.838676556944847 0
      vertex 19.410390108823776 -18.0719752907753 0
    endloop
  endfacet
  facet normal 0 0 -1
    outer loop
      vertex 17.98615463078022 -29.93077314645052 0
      vertex 19.410390108823776 -18.0719752907753 0
      vertex 19.641048938035965 -18.20574228465557 0
    endloop
  endfacet
  facet normal 0 0 -1
    outer loop
      vertex 17.98615463078022 -29.93077314645052 0
      vertex 19.641048938035965 -18.20574228465557 0
      vertex 19.90766217559576 -18.2019357457757 0
    endloop
  endfacet
  facet normal 0 0 -1
    outer loop
      vertex 17.98615463078022 -29.93077314645052 0
      vertex 19.90766217559576 -18.2019357457757 0
      vertex 20.134408086538315 -18.061638221144676 0
    endloop
  endfacet
  facet normal 0 0 -1
    outer loop
      vertex 17.98615463078022 -29.93077314645052 0
      vertex 20.134408086538315 -18.061638221144676 0
      vertex 20.256802774965763 -17.82474870234728 0
    endloop
  endfacet
  facet normal 0 0 -1
    outer loop
      vertex 24.271210446953773 -0.018484584987163544 0
      vertex 17.98615463078022 -29.93077314645052 0
      vertex 20.256802774965763 -17.82474870234728 0
    endloop
  endfacet
  facet normal 0 0 -1
    outer loop
      vertex 24.14647401124239 -0.07257162779569626 0
      vertex 24.271210446953773 -0.018484584987163544 0
      vertex 20.256802774965763 -17.82474870234728 0
    endloop
  endfacet
  facet normal 0 0 -1
    outer loop
      vertex 24.040919549763203 -0.15826202183961868 0
      vertex 24.14647401124239 -0.07257162779569626 0
      vertex 20.256802774965763 -17.82474870234728 0
    endloop
  endfacet
  facet normal 0 0 -1
    outer loop
      vertex 23.962351582944393 -0.2692199572920799 0
      vertex 24.040919549763203 -0.15826202183961868 0
      vertex 20.256802774965763 -17.82474870234728 0
    endloop
  endfacet
  facet normal 0 0 -1
    outer loop
      vertex 23.962351582944393 -0.2692199572920799 0
      vertex 20.256802774965763 -17.82474870234728 0
      vertex 23.91657930612564 -0.39724138379096985 0
    endloop
  endfacet
  facet normal 0 0 1
    outer loop
      vertex 13.684940956532955 -54.03063002973795 20
      vertex 13.898762002587318 -53.82835637032986 20
      vertex 13.961736284196377 -53.54083539545536 20
    endloop
  endfacet
  facet normal 0 0 1
    outer loop
      vertex 13.394369907677174 -54.07756121456623 20
      vertex 13.684940956532955 -54.03063002973795 20
      vertex 13.961736284196377 -53.54083539545536 20
    endloop
  endfacet
  facet normal 0 0 1
    outer loop
      vertex 13.127742260694504 -53.95288656651974 20
      vertex 13.394369907677174 -54.07756121456623 20
      vertex 13.961736284196377 -53.54083539545536 20
    endloop
  endfacet
  facet normal 0 0 1
    outer loop
      vertex 12.977454170584679 -53.69981037080288 20
      vertex 13.127742260694504 -53.95288656651974 20
      vertex 13.961736284196377 -53.54083539545536 20
    endloop
  endfacet
  facet normal 0 0 1
    outer loop
      vertex 12.977454170584679 -53.69981037080288 20
      vertex 13.961736284196377 -53.54083539545536 20
      vertex 12.005862832069397 -30.07035395503044 20
    endloop
  endfacet
  facet normal 0 0 1
    outer loop
      vertex 16.038263715803623 -53.54083539545536 20
      vertex 16.10123799741268 -53.82835637032986 20
      vertex 16.315059043467045 -54.03063002973795 20
    endloop
  endfacet
  facet normal 0 0 1
    outer loop
      vertex 16.038263715803623 -53.54083539545536 20
      vertex 16.315059043467045 -54.03063002973795 20
      vertex 16.605630092322826 -54.07756121456623 20
    endloop
  endfacet
  facet normal 0 0 1
    outer loop
      vertex 16.038263715803623 -53.54083539545536 20
      vertex 16.605630092322826 -54.07756121456623 20
      vertex 16.872257739305496 -53.95288656651974 20
    endloop
  endfacet
  facet normal 0 0 1
    outer loop
      vertex 16.038263715803623 -53.54083539545536 20
      vertex 16.872257739305496 -53.95288656651974 20
      vertex 17.02254582941532 -53.69981037080288 20
    endloop
  endfacet
  facet normal 0 0 1
    outer loop
      vertex 17.994137167930603 -30.07035395503044 20
      vertex 16.038263715803623 -53.54083539545536 20
      vertex 17.02254582941532 -53.69981037080288 20
    endloop
  endfacet
  facet normal 0 0 1
    outer loop
      vertex 15.345352664589882 -1.7342854663729668 20
      vertex 15.119960032403469 -1.5996863022446632 20
      vertex 14.857442736625671 -1.5978310629725456 20
    endloop
  endfacet
  facet normal 0 0 1
    outer loop
      vertex 15.471485495567322 -1.9645229130983353 20
      vertex 15.345352664589882 -1.7342854663729668 20
      vertex 14.857442736625671 -1.5978310629725456 20
    endloop
  endfacet
  facet normal 0 0 1
    outer loop
      vertex 15.471485495567322 -1.9645229130983353 20
      vertex 14.857442736625671 -1.5978310629725456 20
      vertex 14.63017025589943 -1.7292311862111092 20
    endloop
  endfacet
  facet normal 0 0 1
    outer loop
      vertex 15.471485495567322 -1.9645229130983353 20
      vertex 14.63017025589943 -1.7292311862111092 20
      vertex 14.50079595297575 -1.957662932574749 20
    endloop
  endfacet
  facet normal 0 0 1
    outer loop
      vertex 15.471485495567322 -1.9645229130983353 20
      vertex 14.50079595297575 -1.957662932574749 20
      vertex 10.44956573843956 -17.844840228557587 20
    endloop
  endfacet
  facet normal 0 0 1
    outer loop
      vertex 17.994137167930603 -30.07035395503044 20
      vertex 17.02254582941532 -53.69981037080288 20
      vertex 29.85078237950802 -0.6174522340297699 20
    endloop
  endfacet
  facet normal 0 0 1
    outer loop
      vertex 17.99568159133196 -30.042346507310867 20
      vertex 17.994137167930603 -30.07035395503044 20
      vertex 29.85078237950802 -0.6174522340297699 20
    endloop
  endfacet
  facet normal 0 0 1
    outer loop
      vertex 17.995652988553047 -30.014296516776085 20
      vertex 17.99568159133196 -30.042346507310867 20
      vertex 29.85078237950802 -0.6174522340297699 20
    endloop
  endfacet
  facet normal 0 0 1
    outer loop
      vertex 17.994051441550255 -29.986292280256748 20
      vertex 17.995652988553047 -30.014296516776085 20
      vertex 29.85078237950802 -0.6174522340297699 20
    endloop
  endfacet
  facet normal 0 0 1
    outer loop
      vertex 17.990882001817226 -29.958421915769577 20
      vertex 17.994051441550255 -29.986292280256748 20
      vertex 29.85078237950802 -0.6174522340297699 20
    endloop
  endfacet
  facet normal 0 0 1
    outer loop
      vertex 17.98615463078022 -29.93077314645052 20
      vertex 17.990882001817226 -29.958421915769577 20
      vertex 29.85078237950802 -0.6174522340297699 20
    endloop
  endfacet
  facet normal 0 0 1
    outer loop
      vertex 0.1492176204919815 -0.6174522340297699 20
      vertex 12.977454170584679 -53.69981037080288 20
      vertex 12.005862832069397 -30.07035395503044 20
    endloop
  endfacet
  facet normal 0 0 1
    outer loop
      vertex 0.1492176204919815 -0.6174522340297699 20
      vertex 12.005862832069397 -30.07035395503044 20
      vertex 12.004318408668041 -30.042346507310867 20
    endloop
  endfacet
  facet normal 0 0 1
    outer loop
      vertex 0.1492176204919815 -0.6174522340297699 20
      vertex 12.004318408668041 -30.042346507310867 20
      vertex 12.004347011446953 -30.014296516776085 20
    endloop
  endfacet
  facet normal 0 0 1
    outer loop
      vertex 0.1492176204919815 -0.6174522340297699 20
      vertex 12.004347011446953 -30.014296516776085 20
      vertex 12.005948558449745 -29.986292280256748 20
    endloop
  endfacet
  facet normal 0 0 1
    outer loop
      vertex 0.1492176204919815 -0.6174522340297699 20
      vertex 12.005948558449745 -29.986292280256748 20
      vertex 12.009117998182774 -29.958421915769577 20
    endloop
  endfacet
  facet normal 0 0 1
    outer loop
      vertex 0.1492176204919815 -0.6174522340297699 20
      vertex 12.009117998182774 -29.958421915769577 20
      vertex 12.01384536921978 -29.93077314645052 20
    endloop
  endfacet
  facet normal 0 0 1
    outer loop
      vertex 29.806866466999054 -0.26643310487270355 20
      vertex 29.695654176175594 -0.12514303624629974 20
      vertex 29.54165095090866 -0.03233105689287186 20
    endloop
  endfacet
  facet normal 0 0 1
    outer loop
      vertex 29.86090537905693 -0.43792902678251266 20
      vertex 29.806866466999054 -0.26643310487270355 20
      vertex 29.54165095090866 -0.03233105689287186 20
    endloop
  endfacet
  facet normal 0 0 1
    outer loop
      vertex 29.86090537905693 -0.43792902678251266 20
      vertex 29.54165095090866 -0.03233105689287186 20
      vertex 29.364773146808147 0 20
    endloop
  endfacet
  facet normal 0 0 1
    outer loop
      vertex 29.85078237950802 -0.6174522340297699 20
      vertex 29.86090537905693 -0.43792902678251266 20
      vertex 29.364773146808147 0 20
    endloop
  endfacet
  facet normal 0 0 1
    outer loop
      vertex 29.85078237950802 -0.6174522340297699 20
      vertex 29.364773146808147 0 20
      vertex 24.405906058847904 0 20
    endloop
  endfacet
  facet normal 0 0 1
    outer loop
      vertex 0.4583490490913391 -0.03233105689287186 20
      vertex 0.30434582382440567 -0.12514303624629974 20
      vertex 0.19313353300094604 -0.26643310487270355 20
    endloop
  endfacet
  facet normal 0 0 1
    outer loop
      vertex 0.4583490490913391 -0.03233105689287186 20
      vertex 0.19313353300094604 -0.26643310487270355 20
      vertex 0.13909462094306946 -0.43792902678251266 20
    endloop
  endfacet
  facet normal 0 0 1
    outer loop
      vertex 0.6352268531918526 0 20
      vertex 0.4583490490913391 -0.03233105689287186 20
      vertex 0.13909462094306946 -0.43792902678251266 20
    endloop
  endfacet
  facet normal 0 0 1
    outer loop
      vertex 0.6352268531918526 0 20
      vertex 0.13909462094306946 -0.43792902678251266 20
      vertex 0.1492176204919815 -0.6174522340297699 20
    endloop
  endfacet
  facet normal 0 0 1
    outer loop
      vertex 5.588082440197468 0 20
      vertex 0.6352268531918526 0 20
      vertex 0.1492176204919815 -0.6174522340297699 20
    endloop
  endfacet
  facet normal 0 0 1
    outer loop
      vertex 17.98615463078022 -29.93077314645052 20
      vertex 29.85078237950802 -0.6174522340297699 20
      vertex 24.405906058847904 0 20
    endloop
  endfacet
  facet normal 0 0 1
    outer loop
      vertex 17.98615463078022 -29.93077314645052 20
      vertex 24.405906058847904 0 20
      vertex 24.271210446953773 -0.018484584987163544 20
    endloop
  endfacet
  facet normal 0 0 1
    outer loop
      vertex 6.034267619252205 -0.27434808760881424 20
      vertex 5.956009723246098 -0.16143018752336502 20
      vertex 5.849973678588867 -0.07407397776842117 20
    endloop
  endfacet
  facet normal 0 0 1
    outer loop
      vertex 6.078838981688023 -0.4043024778366089 20
      vertex 6.034267619252205 -0.27434808760881424 20
      vertex 5.849973678588867 -0.07407397776842117 20
    endloop
  endfacet
  facet normal 0 0 1
    outer loop
      vertex 6.078838981688023 -0.4043024778366089 20
      vertex 5.849973678588867 -0.07407397776842117 20
      vertex 5.724165111780167 -0.018874749541282654 20
    endloop
  endfacet
  facet normal 0 0 1
    outer loop
      vertex 6.078838981688023 -0.4043024778366089 20
      vertex 5.724165111780167 -0.018874749541282654 20
      vertex 5.588082440197468 0 20
    endloop
  endfacet
  facet normal 0 0 1
    outer loop
      vertex 6.078838981688023 -0.4043024778366089 20
      vertex 5.588082440197468 0 20
      vertex 0.1492176204919815 -0.6174522340297699 20
    endloop
  endfacet
  facet normal 0 0 1
    outer loop
      vertex 9.47431330382824 -17.816991299390793 20
      vertex 6.078838981688023 -0.4043024778366089 20
      vertex 0.1492176204919815 -0.6174522340297699 20
    endloop
  endfacet
  facet normal 0 0 1
    outer loop
      vertex 9.47431330382824 -17.816991299390793 20
      vertex 0.1492176204919815 -0.6174522340297699 20
      vertex 12.01384536921978 -29.93077314645052 20
    endloop
  endfacet
  facet normal 0 0 1
    outer loop
      vertex 9.593300461769104 -18.055640190839767 20
      vertex 9.47431330382824 -17.816991299390793 20
      vertex 12.01384536921978 -29.93077314645052 20
    endloop
  endfacet
  facet normal 0 0 1
    outer loop
      vertex 9.818035542964935 -18.19918593019247 20
      vertex 9.593300461769104 -18.055640190839767 20
      vertex 12.01384536921978 -29.93077314645052 20
    endloop
  endfacet
  facet normal 0 0 1
    outer loop
      vertex 10.084593787789345 -18.206797666847706 20
      vertex 9.818035542964935 -18.19918593019247 20
      vertex 12.01384536921978 -29.93077314645052 20
    endloop
  endfacet
  facet normal 0 0 1
    outer loop
      vertex 10.084593787789345 -18.206797666847706 20
      vertex 12.01384536921978 -29.93077314645052 20
      vertex 14.509709663689137 -17.451451689004898 20
    endloop
  endfacet
  facet normal 0 0 1
    outer loop
      vertex 10.317154049873352 -18.076310269534588 20
      vertex 10.084593787789345 -18.206797666847706 20
      vertex 14.509709663689137 -17.451451689004898 20
    endloop
  endfacet
  facet normal 0 0 1
    outer loop
      vertex 10.44956573843956 -17.844840228557587 20
      vertex 10.317154049873352 -18.076310269534588 20
      vertex 14.509709663689137 -17.451451689004898 20
    endloop
  endfacet
  facet normal 0 0 1
    outer loop
      vertex 15.471485495567322 -1.9645229130983353 20
      vertex 10.44956573843956 -17.844840228557587 20
      vertex 14.509709663689137 -17.451451689004898 20
    endloop
  endfacet
  facet normal 0 0 1
    outer loop
      vertex 15.471485495567322 -1.9645229130983353 20
      vertex 14.509709663689137 -17.451451689004898 20
      vertex 14.633051827549934 -17.209879018366337 20
    endloop
  endfacet
  facet normal 0 0 1
    outer loop
      vertex 15.471485495567322 -1.9645229130983353 20
      vertex 14.633051827549934 -17.209879018366337 20
      vertex 14.864380449056625 -17.068253755569458 20
    endloop
  endfacet
  facet normal 0 0 1
    outer loop
      vertex 15.471485495567322 -1.9645229130983353 20
      vertex 14.864380449056625 -17.068253755569458 20
      vertex 15.135619550943375 -17.068253755569458 20
    endloop
  endfacet
  facet normal 0 0 1
    outer loop
      vertex 19.281282372772694 -17.838676556944847 20
      vertex 15.471485495567322 -1.9645229130983353 20
      vertex 15.135619550943375 -17.068253755569458 20
    endloop
  endfacet
  facet normal 0 0 1
    outer loop
      vertex 19.281282372772694 -17.838676556944847 20
      vertex 15.135619550943375 -17.068253755569458 20
      vertex 15.366948172450066 -17.209879018366337 20
    endloop
  endfacet
  facet normal 0 0 1
    outer loop
      vertex 19.281282372772694 -17.838676556944847 20
      vertex 15.366948172450066 -17.209879018366337 20
      vertex 15.490290336310863 -17.451451689004898 20
    endloop
  endfacet
  facet normal 0 0 1
    outer loop
      vertex 19.281282372772694 -17.838676556944847 20
      vertex 15.490290336310863 -17.451451689004898 20
      vertex 17.98615463078022 -29.93077314645052 20
    endloop
  endfacet
  facet normal 0 0 1
    outer loop
      vertex 19.410390108823776 -18.0719752907753 20
      vertex 19.281282372772694 -17.838676556944847 20
      vertex 17.98615463078022 -29.93077314645052 20
    endloop
  endfacet
  facet normal 0 0 1
    outer loop
      vertex 19.641048938035965 -18.20574228465557 20
      vertex 19.410390108823776 -18.0719752907753 20
      vertex 17.98615463078022 -29.93077314645052 20
    endloop
  endfacet
  facet normal 0 0 1
    outer loop
      vertex 19.90766217559576 -18.2019357457757 20
      vertex 19.641048938035965 -18.20574228465557 20
      vertex 17.98615463078022 -29.93077314645052 20
    endloop
  endfacet
  facet normal 0 0 1
    outer loop
      vertex 20.134408086538315 -18.061638221144676 20
      vertex 19.90766217559576 -18.2019357457757 20
      vertex 17.98615463078022 -29.93077314645052 20
    endloop
  endfacet
  facet normal 0 0 1
    outer loop
      vertex 20.256802774965763 -17.82474870234728 20
      vertex 20.134408086538315 -18.061638221144676 20
      vertex 17.98615463078022 -29.93077314645052 20
    endloop
  endfacet
  facet normal 0 0 1
    outer loop
      vertex 20.256802774965763 -17.82474870234728 20
      vertex 17.98615463078022 -29.93077314645052 20
      vertex 24.271210446953773 -0.018484584987163544 20
    endloop
  endfacet
  facet normal 0 0 1
    outer loop
      vertex 20.256802774965763 -17.82474870234728 20
      vertex 24.271210446953773 -0.018484584987163544 20
      vertex 24.14647401124239 -0.07257162779569626 20
    endloop
  endfacet
  facet normal 0 0 1
    outer loop
      vertex 20.256802774965763 -17.82474870234728 20
      vertex 24.14647401124239 -0.07257162779569626 20
      vertex 24.040919549763203 -0.15826202183961868 20
    endloop
  endfacet
  facet normal 0 0 1
    outer loop
      vertex 20.256802774965763 -17.82474870234728 20
      vertex 24.040919549763203 -0.15826202183961868 20
      vertex 23.962351582944393 -0.2692199572920799 20
    endloop
  endfacet
  facet normal 0 0 1
    outer loop
      vertex 23.91657930612564 -0.39724138379096985 20
      vertex 20.256802774965763 -17.82474870234728 20
      vertex 23.962351582944393 -0.2692199572920799 20
    endloop
  endfacet
endsolid OpenSCAD_Model
